/* XPM */
static char *img1[] = {
/* columns rows colors chars-per-pixel */
"64 64 23 1 ",
"  c #EE96C7",
". c #EF97C7",
"X c #EF9BC7",
"o c #ED96C8",
"O c #EF97C8",
"+ c #EE99C8",
"@ c #F09BC6",
"# c #F09CC7",
"$ c #F09BC9",
"% c #F2A3C6",
"& c #F3A5C6",
"* c #F3A4C7",
"= c #F4A8C6",
"- c #F4A8C7",
"; c #F5AAC7",
": c #F6AEC7",
"> c #F4A6C8",
", c #F4A9C8",
"< c #F8B3C6",
"1 c #F8B4C6",
"2 c #FBBCC5",
"3 c #FDC2C4",
"4 c #FFC8C3",
/* pixels */
"4444444444444444444444444444444444444444444444444444444444444444",
"4444444444444444444444444444444444444444444444444444444444444444",
"4444444444444444444444444444444444444444444444444444444444444444",
"4444444444444444444444444444444444444444444444444444444444444444",
"4444444444444444444444444444444444444444444444444444444444444444",
"4444444444444444444444444444444444444444444444444444444444444444",
"4444444444444444444444444444444444444444444444444444444444444444",
"4444444444444444444444444444444444444444444444444444444444444444",
"4444444444444444444444444444444444444444444444444444444444444444",
"4444444444444444444444444444444444444444444444444444444444444444",
"4444444444444444444444444444444444444444444444444444444444444444",
"4444444444444444444444444444444444444444444444444444444444444444",
"4444444444444444444444444444444444444444444444444444444444444444",
"4444444444444444444442224444444444444444444444444444444444444444",
"4444444444444444442111442222444444444222222222444444444444444444",
"444444444444444422::1XXX1<24244444411222222244224444444444444444",
"4444444444444442::$  O::@+#@212442::<@$$+$+$X$2<2444444444444444",
"4444444444444441$#  @    $<<#222<:<  $@@###@<1#@2224444444444444",
"444444444444442$OO     #    +O1<-X  #   +O    $ 1224444444444444",
"444444444444442+#O X        O  :  $@  ..     X O #21444444444444",
"44444444444444#+@   X         OO + .....@...   @  @<444444444444",
"44444444444444##O      XX ..  O + ......O ..X    X 2244444444444",
"44444444444444O   O    X   XX o .         ..  O@ @OX244444444444",
"44444444444444+ O@@  +@          ..         ++     O244444444444",
"4444444444444#+   .  +  X#O     .    +2@OOOO    X  O244444444444",
"4444444444444#$   . O#444#XX OO    O+@O#4444#+ X   O244444444444",
"4444444444444#+      #4444#X OO    @OO#44444##O    O244444444444",
"4444444444444@XX  O@ 14444##XOOO   2@#444444$+O @  O244444444444",
"4444444444444#X      :14444##O+OX 2XO#444442$+  O.  244444444444",
"4444444444444#2 @    X:244444XXOO ##X444444:O@    @ 444444444444",
"4444444444444#2 O  XX <:244444424+###44421:X @    OO444444444444",
"4444444444444#2#       2:144444444444421:<2  O X  O@444444444444",
"4444444444444###.    #  2:14444444444:,1@  # @    +@444444444444",
"44444444444444##O      X +1124444442::@X $2  OO@  ##444444444444",
"44444444444444##@$O     #O@1<244441,< O@ @       +##444444444444",
"444444444444444# O+@        <:2441-#  4O        2##4444444444444",
"4444444444444444@O++         <:21-+OX        O 1# #4444444444444",
"44444444444444444#O++X   XX   2->+ @ @  X    +@4##44444444444444",
"444444444444444444@  +        O-#O@O      O+@22# #44444444444444",
"44444444444444444444  +X    OOOO +O@   X +@22@ #4444444444444444",
"444444444444444444444@OO .   .   O      X2X  #444444444444444444",
"4444444444444444444444X ++.  OO. @  X O12X X44444444444444444444",
"44444444444444444444444# O+ . ....    1# #4444444444444444444444",
"444444444444444444444444@ $+.......  1# #44444444444444444444444",
"4444444444444444444444444X +OO# ..O <# #444444444444444444444444",
"44444444444444444444444444&XO@  ..@<# #4444444444444444444444444",
"4444444444444444444444444444X%  . <@ #44444444444444444444444444",
"444444444444444444444444444444&-@*#@#444444444444444444444444444",
"4444444444444444444444444444444434--4444444444444444444444444444",
"4444444444444444444444444444444444444444444444444444444444444444",
"4444444444444444444444444444444444444444444444444444444444444444",
"4444444444444444444444444444444444444444444444444444444444444444",
"4444444444444444444444444444444444444444444444444444444444444444",
"4444444444444444444444444444444444444444444444444444444444444444",
"4444444444444444444444444444444444444444444444444444444444444444",
"4444444444444444444444444444444444444444444444444444444444444444",
"4444444444444444444444444444444444444444444444444444444444444444",
"4444444444444444444444444444444444444444444444444444444444444444",
"4444444444444444444444444444444444444444444444444444444444444444",
"4444444444444444444444444444444444444444444444444444444444444444",
"4444444444444444444444444444444444444444444444444444444444444444",
"4444444444444444444444444444444444444444444444444444444444444444",
"4444444444444444444444444444444444444444444444444444444444444444",
"4444444444444444444444444444444444444444444444444444444444444444"
};
