/* XPM */
static char *img2[] = {
/* columns rows colors chars-per-pixel */
"64 64 33 1 ",
"  c #715BA4",
". c #8367A9",
"X c #9472AD",
"o c #A17BB1",
"O c #AE83B4",
"+ c #B88AB7",
"@ c #C191B9",
"# c #CD96B9",
"$ c #D09ABD",
"% c #D69CBC",
"& c #D99EBC",
"* c #E0A3BE",
"= c #E2A5BE",
"- c #EDABC1",
"; c #EFADC2",
": c #F2AEC1",
"> c #F3AFC3",
", c #F5B0C2",
"< c #F6B1C3",
"1 c #F3B0C4",
"2 c #F5B0C4",
"3 c #F6B3C4",
"4 c #F7B3C5",
"5 c #F9B2C3",
"6 c #FBB4C3",
"7 c #FEB5C3",
"8 c #FBB3C4",
"9 c #F9B4C4",
"0 c #FDB4C4",
"q c #FEB7C4",
"w c #FFB7C5",
"e c #FEB7C7",
"r c #FDB7C8",
/* pixels */
"                                   .                            ",
"                                 . X                            ",
"                                .o &  .                         ",
"                                X= 1  X                         ",
"                                &,Xw #X.                        ",
"                                11www-&X                        ",
"                               X57wwww6X                        ",
"                               Xwwwwww7X                        ",
"                               77wwwwwwX                        ",
"                              X7,rqrwwq                         ",
"                              X7wrwrww7                         ",
"                              2wrwqqwq=                         ",
"                             X76qqqrw61                         ",
"         .XX                 X7wwqwrw7,          XXXX.          ",
"       .XX XXX               -wwqqwwwr=      XXOOXX.            ",
"      .oO=::.XOX             7:qqrrqw=     XOOOOO26=1&XX.       ",
"       #::O:::XXO            =rwwwww=3    O@O,1ww=6&            ",
"      #--www>1>: XX          6wwwwwww=   XO3q77=1wwwqr1&X.      ",
"        wwwwwww:>X X        :X wwwX=1     eq=ewrqqrwqwr=#       ",
"       wwwwwwwwww-XX        - --wXX3=    == eeqqwrqqrwww#       ",
"      .Xwwwwwwwww-8 X         1=3 -1       wqrwrrqwqwrw         ",
"     #--Xwwwwrwwww--            X --      wwwrqqwqqqwqX.        ",
"       5wwwwwwwwwww-                     ==wrwwwrqq76&          ",
"         -wwwwwwrw            XX        3; ,ww77,XX17735#       ",
"           Xww7ww X        XOOXOOXXXXX    -673X1wqq=            ",
"              ::w8-      OO@@+r1XOOX XX     XX-7=               ",
"                X --   X+$O2wr3q6366,3OOX                       ",
"                      O@@wwww7wq6r13O,=XXX                      ",
"                     X+2ww:rwrwrrqqrwwwrXOX                     ",
"                     Xwwwrrwwwqqwqwqwww7qXO                     ",
"                     :r wwwwrqwrrwqwqrwwqq+X                    ",
"                     :>wwwwwwwwwqrrwqqwrwq=X                    ",
"                     :rwrwrwwwwwqwwrwwrqwwwX      XXXXXXXXX     ",
"                     wwwwwwwwwwwqqrwrqrwww8X    XXXXXXXXX .     ",
"                    -wwrwwwwwwwrrwww7rqwww7X   XOO22333,32=XXX  ",
"                    -Xwwwwwwwwr>q737qwrqww6X    -------;- %  .  ",
"                    -Xwwwwwwwwwww=171wwrww7X   ---wwrwwqwww==XX ",
"                 XX -X:wwwwwwwwwrqqqq7wwwww      w6wrwqqwwwqw1. ",
"              XOOX  -->:wwwwwwwwqqqrrqrwwww     rwwwqwqrwwrww7  ",
"            OO@@X-- X>88rwwrwwwwwwqqwwqrw:-    XXrwwwrrwwwwwq#  ",
"          O@@O:88:XXX -8wwwwwwwwwwwwqqwwX1=   ::--wqrqrwwwwwX   ",
"        O@OO88wwXrw--XX -ww8wwwwwwwwrw66 -:     -76q7w7wqqw .   ",
"      X@@Xwww:wwwwrw:>    XXwwwwqqww71XX-7-       XX17wqrqw66-  ",
"     O@o8w-:wwwwwwwww-        OX1rwqq677-                 . ##  ",
"    X+:ww wrwwwwwwww-       X X                                 ",
"    .w8#wwwwwrwwwwwXX      XOX-  X         XX                   ",
"    -8 wwwwwwwwwwr>X       O:X-  X       XX XX                  ",
"    # wwwwwrwwrww2X-w-    X>-:w 1 X     XOO1=XXX                ",
"     wwwwwwwwr2X:w88-     Xr www:-X      12O-: XX               ",
"    :wwwwww2XX:ww-        :>rwwwww      --:rww-XO               ",
"   -- www2OX-w-           22wwwwr:       -wwwrw6OX              ",
"   # -8w2o-w-            XrwwwwrwX       wrwwwww1X              ",
"     ##*X-8-             XwwwwwwwX      XXwwwwrw7O              ",
"       . ##              w:wwwwww-     --X:wwwww7O              ",
"                         w&wwwwww-      -wwwwwww7OX             ",
"                         5wwwwww-        -:rwwwww-X             ",
"                         -wwwwww-        -Xwwwwww7X             ",
"                        -Xwwwww8-        -X6wwwwww.             ",
"                        -.-wwwX--        --1wwwww6              ",
"                        # --w --          --wwwww#              ",
"                          ##* --          -.-wwww-              ",
"                            . ##          # --w --              ",
"                                            ##= --              ",
"                                              . ##              "
};
