/* XPM */
static char *img3[] = {
/* columns rows colors chars-per-pixel */
"64 64 43 1 ",
"  c #715AA3",
". c #715BA3",
"X c #745BA2",
"o c #735CA3",
"O c #745CA3",
"+ c #715BA4",
"@ c #745BA4",
"# c #735DA4",
"$ c #765EA5",
"% c #785EA3",
"& c #785FA4",
"* c #7961A3",
"= c #7A61A6",
"- c #7C62A5",
"; c #7E63A5",
": c #8064A6",
"> c #8264A7",
", c #8265A7",
"< c #8265A8",
"1 c #8566A8",
"2 c #8A69AA",
"3 c #8D6BAA",
"4 c #906CAA",
"5 c #946FAC",
"6 c #9770AD",
"7 c #9972AD",
"8 c #9D74AE",
"9 c #9F76B0",
"0 c #A478B0",
"q c #AA7CB2",
"w c #B381B4",
"e c #B482B5",
"r c #BC86B6",
"t c #C78CB9",
"y c #C88DB9",
"u c #D394BC",
"i c #D494BD",
"p c #E39DC1",
"a c #F3A5C6",
"s c #F3A6C6",
"d c #F4A7C7",
"f c #F3A8C6",
"g c #F5A8C8",
/* pixels */
"ssssssssssssssssssssssssssssssssssssssssssssssssssssssssssssssss",
"ssssssssssssssssssssssssssssssssssssssssssssssssssssssssssssssss",
"ssssssssssssssssssssssssssssssssssssssssssssssssssssssssssssssss",
"ssssssssssssssssssssssssssssssssssssssssssssssssssssssssssssssss",
"ssssssssssssssssssssssssssssssssssssssssssssssssssssssssssssssss",
"ssssssssssssssssssssssssssssssssssssssssssssssssssssssssssssssss",
"ssssssssssssssssssssssssssssssssssssssssssssssssssssssssssssssss",
"ssssssssssssssssssssssssssssssssssssssssssssssssssssssssssssssss",
"ssssssssssssssssssssssssssssssssssssssssssssssssssssssssssssssss",
"ssssssssssssssssssssssssssssssssssssssssssssssssssssssssssssssss",
"ssssssssssssssssssssssssssssssssssssssssssssssssssssssssssssssss",
"ssssssssssssssssssssssssssssssssssssssssssssssssssssssssssssssss",
"ssssssssssssssssssssssssssssssssssssssssssssssssssssssssssssssss",
"ssssssssssssssssssssssssssssssssssssssssssssssssssssssssssssssss",
"ssssssssssssssssssssssssssssssssssssssssssssssssssssssssssssssss",
"ssssssssssssssssssssssssssssssssssssssssssssssssssssssssssssssss",
"ssssssssssssssssssssssssssssssssssssssssssssssssssssssssssssssss",
"ssssssssssssssssssssssssssssssssssssssssssssssssssssssssssssssss",
"ssssssssssssssssssssssssssssssssssssssssssssssssssssssssssssssss",
"sssssssssssssssssssssssss5ttrtssssssssssssssssssssssssssssssssss",
"sssssssssssssssssssssss50wrtsrs0ssssss520sssssssssssssssssssssss",
"ssssssssssssssssssssss<;q+## $t8tsss5=5ssr7uaassssssssssssssssss",
"ssssssssssssssssssssu76  #  7#s#rd0: *+##323>sssssssssssssssssss",
"sssssssssssssssssssr2q  $+#+++ #ry:4+++2;O >r>isssssssssssssssss",
"sssssssssssssasssu53=++g++++++++OO8++++++++++s2;ssssssssssssssss",
"ssssssssssssssse730++$++++++++++$O+#s+++++++++7e2wisssssssssssss",
"ssssssssssssrq538=@ u#++++++++++o++s++++++++++++:80tqeqwpsssssss",
"ssssssssssrtq57##o$e+++++++++++ ++#+++++++++++++++&540psssssssss",
"sssssssssr0q +++#++++++++++++++ +0+++++++++++++++$ X+++#2qwpssss",
"ssssssssss$$++#++++++++#+Xy+++# $ $+++++ +++++++++# +#5sssssssss",
"sssssssss#$$+++++++++++ 8i#+> $ +++++#++++++++++++++++++++1wpsss",
"sssssssssss+++++++++++ q<#$8issrs#+++$t++++++++++++++++++++9ssss",
"sssssssssd+++++++++++$r;+Xidq053wq0818  =r ++ ++++++++++++#9ssss",
"sssssssssrt+++++++ +rt##@58+%329085qwrrrsss$++++++++++++++ssssss",
"sssssssso$$<++++  r=++#sf+X:++++#+++++#++$rrr$+++++++++++wpassss",
"ssssssssss++++#$e$++ sds+<++++++++++####asssssst$+++++++5sssssss",
"ssssssssssssrt+#  <sdsssd+++++++++++++++++++rrsssstt   #+++9ssss",
"sssssssssssssssssssssssss +++++++++++++++++##ssssssssdssssssssss",
"ssssssssssssssssssssssss8i++++++++++++++++++#sssssssssssssssssss",
"sssssssssssssssssssssss#<q0++++++++++++++++sssssssssssssssssssss",
"ssssssssssssssssssssssss++++++++++++++++++rrssssssssssssssssssss",
"ssssssssssssssssssssssssss++++++++++++++++ssssssssssssssssssssss",
"ssssssssssssssssssssssssssssq0++++++++++++++#sssssssssssssssssss",
"sssssssssssssssssssssssssssssadsssssssssssssssssssssssssssssssss",
"ssssssssssssssssssssssssssssssssssssssssssssssssssssssssssssssss",
"ssssssssssssssssssssssssssssssssssssssssssssssssssssssssssssssss",
"ssssssssssssssssssssssssssssssssssssssssssssssssssssssssssssssss",
"ssssssssssssssssssssssssssssssssssssssssssssssssssssssssssssssss",
"ssssssssssssssssssssssssssssssssssssssssssssssssssssssssssssssss",
"ssssssssssssssssssssssssssssssssssssssssssssssssssssssssssssssss",
"ssssssssssssssssssssssssssssssssssssssssssssssssssssssssssssssss",
"ssssssssssssssssssssssssssssssssssssssssssssssssssssssssssssssss",
"ssssssssssssssssssssssssssssssssssssssssssssssssssssssssssssssss",
"ssssssssssssssssssssssssssssssssssssssssssssssssssssssssssssssss",
"ssssssssssssssssssssssssssssssssssssssssssssssssssssssssssssssss",
"ssssssssssssssssssssssssssssssssssssssssssssssssssssssssssssssss",
"ssssssssssssssssssssssssssssssssssssssssssssssssssssssssssssssss",
"ssssssssssssssssssssssssssssssssssssssssssssssssssssssssssssssss",
"ssssssssssssssssssssssssssssssssssssssssssssssssssssssssssssssss",
"ssssssssssssssssssssssssssssssssssssssssssssssssssssssssssssssss",
"ssssssssssssssssssssssssssssssssssssssssssssssssssssssssssssssss",
"ssssssssssssssssssssssssssssssssssssssssssssssssssssssssssssssss",
"ssssssssssssssssssssssssssssssssssssssssssssssssssssssssssssssss",
"ssssssssssssssssssssssssssssssssssssssssssssssssssssssssssssssss"
};
