/* XPM */
static char *img4[] = {
/* columns rows colors chars-per-pixel */
"64 64 38 1 ",
"  c #715AA3",
". c #735CA3",
"X c #745CA2",
"o c #745CA3",
"O c #765EA3",
"+ c #715AA4",
"@ c #705BA4",
"# c #715CA4",
"$ c #745CA4",
"% c #745DA4",
"& c #775FA4",
"* c #7660A3",
"= c #7761A5",
"- c #7961A3",
"; c #7B64A3",
": c #7962A5",
"> c #7A63A6",
", c #7B64A4",
"< c #7B65A5",
"1 c #7F68A5",
"2 c #8169A5",
"3 c #836CA6",
"4 c #8870A6",
"5 c #8B72A6",
"6 c #8C73A8",
"7 c #8F77A8",
"8 c #927AA8",
"9 c #937AA8",
"0 c #977EA9",
"q c #9C83AA",
"w c #A289AB",
"e c #A98FAC",
"r c #B097AD",
"t c #B99FAE",
"y c #C3A9B0",
"u c #CFB5B2",
"i c #DDC2B5",
"p c #FFE3BB",
/* pixels */
"pppppppppppppppppppppppppppppppppppppppppppppppppppppppppppppppp",
"pppppppppppppppppppppppppppppppppppppppppppppppppppppppppppppppp",
"pppppppppppppppppppppppppppppppppppppppppppppppppppppppppppppppp",
"pppppppppppppppppppppppppppppppppppppppppppppppppppppppppppppppp",
"pppppppppppppppppppppppppppppppppppppppppppppppppppppppppppppppp",
"pppppppppppppppppppppppppppppppppppppppppppppppppppppppppppppppp",
"pppppppppppppppppppppppppppppppppppppppppppppppppppppppppppppppp",
"pppppppppppppppppppppppppppppppppppppppppppppppppppppppppppppppp",
"pppppppppppppppppppppppppppppppppppppppppppppppppppppppppppppppp",
"pppppppppppppppppppppppppppppppppppppppppppppppppppppppppppppppp",
"pppppppppppppppppppppppppppppppppppppppppppppppppppppppppppppppp",
"pppppppppppppppppppppppppppppppppppppppppppppppppppppppppppppppp",
"pppppppppppppppppppppppppppppppppppppppppppppppppppppppppppppppp",
"pppppppppppppppppppppppppppppppppppppppppppppppppppppppppppppppp",
"ppppppppppppppppppppppppippppppppppppppppppppppppppppppppppppppp",
"ppppppppppppppppppppyutuyyrwpppppppppppppppppppppppppppppppppppp",
"pppppppppppppppppp6wutry&wpitppppppppppppppppppppppppppppppppppp",
"ppppppppppppppppw4er#$#$@$@@y0wpppppppyyyuyyyypppppppppppppppppp",
"ppppppppppppppp63w@@=#X*@@:y@pytppppeqyuyyyyppyuippppppppppppppp",
"ppppppppppppppew.#:-@###$@@@@$r7ypu37wX$oo oo ry0ppppppppppppppp",
"pppppppppppppiq@#$@@@@##$@@$@$@iq43w@@$$ $$Xeto&3quipppppppppppp",
"pppppppppppppy@:$$@$@@@#@@@@@@@@1-X.#$#$ @##@@$o@wprpppppppppppp",
"ppppppppppppp:@p##@@@@$@@@@$@$$X.###$@$@#@##@@@@@@:ueppppppppppp",
"pppppppppppppX@#@$@$@$@@$@@@@@X$##3#@@@@@@@@$@@$@@$30ppppppppppp",
"ppppppppppppp#@@@@@@@$+$++@$@$@@@@@@$@$@$@@@@@@@$@$@ytpppppppppp",
"ppppppppppppp@@@@$@$wu@@@@@+@@@@@@@$@@@@@@@$@$@$@@@@@epppppppppp",
"pppppppppppp3#$@@@@@@@@ppp$$X#@@#@$@@@$@o@@@@$@@@@$@@rpppppppppp",
"pppppppppppp$X@@$@@$@pppppp$$$@$@@@@$@wyo@@@@$@@@$@@@yuppppppppp",
"pppppppppppp#X@@@@$@&pppppp3@o@@@$@@@w&@@pppp@@$@@@@$:ippppppppp",
"pppppppppppp#.@@@@@@eppppppp@ @ @@@Xr@@$ppppp$w@@$$@@@yppppppppp",
"pppppppppppp:.@@$@@@epppppppp@#@@$ o@@&pppppp@o@@@@@@@pppppppppp",
"pppppppppppp.1##@@$@ttppppppppp@@@o@@3pppppppy$@@$@@@$pppppppppp",
"pppppppppppp:y@@$@$@$rpppppppppppep@@ppppppppy@@@@@@#upppppppppp",
"pppppppppppp.y@@@@@@#rrppppppppppppppppppppppo$@$++$#:pppppppppp",
"ppppppppppppXi$#@@$@@3euppppppppppppppppppppy@o@@@@@#3pppppppppp",
"pppppppppppp3=X@@$@@@$p0uppppppppppppppppppp6@@@@+$@X@pppppppppp",
"ppppppppppppp*1.@#@@$&@prwipppppppppppppppr6o@@@$+@@&ppppppppppp",
"ppppppppppppp=3=$$@#@@@@yu8uppppppppppppe9qy@$@$@@$@@ppppppppppp",
"pppppppppppppp*:$@@@#@#$#$<reyppppppppw69y@@@@@@@@@$:ppppppppppp",
"ppppppppppppppp#&X@$@@@###@op6upppppr33r@@$y@$@$$+@$pppppppppppp",
"pppppppppppppppp:$  #@$@@$@@$>tuipi3&wo @y@@@@$@##.=pppppppppppp",
"pppppppppppppppp3-:X@@@@@@@@@ eute--@@@3@@$@@$@@@t##pppppppppppp",
"pppppppppppppppppp@#$$$@$@$@$@$,8-o @3@@@@@@@@@ tX#ppppppppppppp",
"ppppppppppppppppppp##X @@@@@@@@ X.  @$@$@$@@@$@op##ppppppppppppp",
"pppppppppppppppppppp:@@X$@@@@@#$.#@$@@@@@$@@ooti##3ppppppppppppp",
"pppppppppppppppppppppp@@@@@$#@@ #p@#$@@$@+@oty:@#ppppppppppppppp",
"ppppppppppppppppppppppp:@@@@@@ @p@@#@$@@@ Oy&@$ppppppppppppppppp",
"ppppppppppppppppppppppppp@$@$@:t#@@@@@@ Oy$@@3pppppppppppppppppp",
"ppppppppppppppppppppppppppp@# @@$@$@#$@r###3pppppppppppppppppppp",
"pppppppppppppppppppppppppppppt: @@@@@4:@##pppppppppppppppppppppp",
"pppppppppppppppppppppppppppppp#p:   ;@@@pppppppppppppppppppppppp",
"pppppppppppppppppppppppppppppppp@@ r:@@ppppppppppppppppppppppppp",
"pppppppppppppppppppppppppppppppppp6p@@pppppppppppppppppppppppppp",
"pppppppppppppppppppppppppppppppppppppppppppppppppppppppppppppppp",
"pppppppppppppppppppppppppppppppppppppppppppppppppppppppppppppppp",
"pppppppppppppppppppppppppppppppppppppppppppppppppppppppppppppppp",
"pppppppppppppppppppppppppppppppppppppppppppppppppppppppppppppppp",
"pppppppppppppppppppppppppppppppppppppppppppppppppppppppppppppppp",
"pppppppppppppppppppppppppppppppppppppppppppppppppppppppppppppppp",
"pppppppppppppppppppppppppppppppppppppppppppppppppppppppppppppppp",
"pppppppppppppppppppppppppppppppppppppppppppppppppppppppppppppppp",
"pppppppppppppppppppppppppppppppppppppppppppppppppppppppppppppppp",
"pppppppppppppppppppppppppppppppppppppppppppppppppppppppppppppppp",
"pppppppppppppppppppppppppppppppppppppppppppppppppppppppppppppppp"
};
